<?xml version="1.0" standalone="no"?><!DOCTYPE svg PUBLIC "-//W3C//DTD SVG 1.1//EN" "http://www.w3.org/Graphics/SVG/1.1/DTD/svg11.dtd"><svg t="1539756436137" class="icon" style="" viewBox="0 0 1041 1024" version="1.1" xmlns="http://www.w3.org/2000/svg" p-id="1640" xmlns:xlink="http://www.w3.org/1999/xlink" width="203.3203125" height="200"><defs><style type="text/css"></style></defs><path d="M260.338983 300.517966c0-137.111864 110.730847-248.259254 247.322034-248.259254S754.983051 163.406102 754.983051 300.517966c0 137.111864-110.730847 248.250576-247.322034 248.250576S260.338983 437.629831 260.338983 300.517966m391.029153 263.671322C744.135593 513.128136 807.050847 414.208 807.050847 300.517966 807.050847 134.543186 673.010983 0 507.661017 0 342.311051 0 208.271186 134.551864 208.271186 300.517966c0 165.97478 134.039864 300.517966 299.389831 300.517966 3.471186 0 6.907661-0.147525 10.344136-0.260339 0.815729 0.173559 1.700881 0.260339 2.672813 0.260339 241.690034 0 449.987254 172.231593 467.403932 365.845695H53.109153c10.19661-128.442576 95.101831-243.972339 226.816-310.159186a26.172746 26.172746 0 0 0 11.628474-35.058983 25.981831 25.981831 0 0 0-34.928813-11.671865C99.232542 689.06522 0 833.327729 0 993.002305v26.129356h1041.355932v-26.129356c0-197.015864-169.888542-376.380746-389.987796-428.821695" p-id="1641" fill="#707070"></path></svg>