<?xml version="1.0" standalone="no"?><!DOCTYPE svg PUBLIC "-//W3C//DTD SVG 1.1//EN" "http://www.w3.org/Graphics/SVG/1.1/DTD/svg11.dtd"><svg t="1548484747636" class="icon" style="" viewBox="0 0 1024 1024" version="1.1" xmlns="http://www.w3.org/2000/svg" p-id="3415" xmlns:xlink="http://www.w3.org/1999/xlink" width="200" height="200"><defs><style type="text/css"></style></defs><path d="M888.970142 328.502779c38.167275 0 65.569368-27.402093 65.569368-64.591087 0-37.187971-27.402093-66.547649-65.569368-66.547649L138.343323 197.364043c-37.187971 0-66.547649 29.359678-66.547649 66.547649 0 37.188994 29.358655 64.591087 66.547649 64.591087L888.970142 328.502779 888.970142 328.502779zM138.343323 694.516894c-37.187971 0-66.547649 29.360701-66.547649 65.571415s29.358655 66.546625 66.547649 66.546625l751.604076 0c38.168298 0 65.569368-30.336936 65.569368-66.546625s-27.40107-65.571415-65.569368-65.571415L138.343323 694.516894zM138.343323 444.961164c-37.187971 0-66.547649 29.359678-66.547649 66.549695 0 37.186947 29.358655 66.546625 66.547649 66.546625l751.604076 0c38.168298 0 65.569368-29.358655 65.569368-66.546625 0-37.190017-27.40107-66.549695-65.569368-66.549695L138.343323 444.961164z" p-id="3416" fill="#ffffff"></path></svg>