<?xml version="1.0" standalone="no"?><!DOCTYPE svg PUBLIC "-//W3C//DTD SVG 1.1//EN" "http://www.w3.org/Graphics/SVG/1.1/DTD/svg11.dtd"><svg t="1539827375678" class="icon" style="" viewBox="0 0 1024 1024" version="1.1" xmlns="http://www.w3.org/2000/svg" p-id="8587" xmlns:xlink="http://www.w3.org/1999/xlink" width="200" height="200"><defs><style type="text/css"></style></defs><path d="M904 144H120A116.72 116.72 0 0 0 3.52 260.08v504A116.72 116.72 0 0 0 120 880h784a116.72 116.72 0 0 0 116.4-116.4v-504A116.72 116.72 0 0 0 904 144z m54.72 620.32a54.8 54.8 0 0 1-54.72 54.72H120a54.8 54.8 0 0 1-54.72-54.72v-504A54.8 54.8 0 0 1 120 205.36h784a54.8 54.8 0 0 1 54.72 54.72z" p-id="8588" fill="#8a8a8a"></path><path d="M867.84 379.68H621.92a25.6 25.6 0 1 0 0 51.12h245.92a25.6 25.6 0 1 0 0-51.12zM804.32 491.92h-182.4a25.6 25.6 0 1 0 0 51.12h182.4a25.6 25.6 0 1 0 0-51.12zM734.88 601.68H621.92a25.6 25.6 0 1 0 0 51.12h112.96a25.6 25.6 0 1 0 0-51.12zM548.96 708.64a207.44 207.44 0 0 0-114.88-161.76A149.6 149.6 0 0 0 340.08 280.8a145.44 145.44 0 0 0-106.24 44.08 144 144 0 0 0-43.44 105.6 149.6 149.6 0 0 0 56 116.32 210.96 210.96 0 0 0-114.96 158.24 15.52 15.52 0 0 0-0.88 5.68v5.12a27.44 27.44 0 0 0 27.36 27.36 28.08 28.08 0 0 0 27.36-27.36 158.08 158.08 0 0 1 145.68-136 91.04 91.04 0 0 0 18.24 0A156.32 156.32 0 0 1 494.96 716l0.72 6.16H496a27.2 27.2 0 0 0 26.56 21.04 28.08 28.08 0 0 0 27.36-27.36v-2.88l-0.4-0.96zM340.08 525.36a96 96 0 0 1-94.88-94.88 90.56 90.56 0 0 1 27.92-67.04 94.48 94.48 0 0 1 134.08 0 90.56 90.56 0 0 1 27.92 67.04 95.04 95.04 0 0 1-95.04 94.88z" p-id="8589" fill="#8a8a8a"></path></svg>