<?xml version="1.0" standalone="no"?><!DOCTYPE svg PUBLIC "-//W3C//DTD SVG 1.1//EN" "http://www.w3.org/Graphics/SVG/1.1/DTD/svg11.dtd"><svg t="1539756473615" class="icon" style="" viewBox="0 0 1024 1024" version="1.1" xmlns="http://www.w3.org/2000/svg" p-id="2371" xmlns:xlink="http://www.w3.org/1999/xlink" width="200" height="200"><defs><style type="text/css"></style></defs><path d="M672 64c159.058 0 288 128.942 288 288s-128.942 288-288 288c-37.936 0-74.152-7.35-107.322-20.678L480 704h-96v128h-128v128H64v-160l340.678-340.678C391.35 426.152 384 389.936 384 352c0-159.058 128.942-288 288-288m0-64c-194.368 0-352 157.538-352 352 0 30.614 3.89 60.704 11.596 89.894L14.058 759.432A48.006 48.006 0 0 0 0 793.372V976c0 26.51 21.49 48 48 48h224c26.51 0 48-21.49 48-48v-80h80c26.51 0 48-21.49 48-48v-80h38.628c12.73 0 24.94-5.058 33.942-14.058l61.538-61.538C611.296 700.11 641.386 704 672 704c194.368 0 352-157.538 352-352C1024 157.632 866.462 0 672 0z m96 216c22.056 0 40 17.944 40 40s-17.944 40-40 40-40-17.944-40-40 17.944-40 40-40m0-56c-53.02 0-96 42.98-96 96s42.98 96 96 96 96-42.98 96-96-42.98-96-96-96z" p-id="2372" fill="#8a8a8a"></path></svg>