<?xml version="1.0" standalone="no"?><!DOCTYPE svg PUBLIC "-//W3C//DTD SVG 1.1//EN" "http://www.w3.org/Graphics/SVG/1.1/DTD/svg11.dtd"><svg t="1539827226330" class="icon" style="" viewBox="0 0 1375 1024" version="1.1" xmlns="http://www.w3.org/2000/svg" p-id="3940" xmlns:xlink="http://www.w3.org/1999/xlink" width="268.5546875" height="200"><defs><style type="text/css"></style></defs><path d="M1365.748336 66.572717C1347.629926 26.131846 1306.245288 0 1260.311506 0H114.708622C51.459107 0 0 49.327529 0 109.957377v804.083339c0 60.631755 51.459107 109.959284 114.708622 109.959284h1145.606697c63.251422 0 114.706715-49.327529 114.706715-109.959284V109.957377a105.433018 105.433018 0 0 0-9.273698-43.38466M114.708622 59.310481h1145.606697c22.591291 0 42.72879 12.370014 51.306579 31.514175 0.671123 1.494774 1.252636 3.01052 1.75979 4.547239L726.620129 682.129641c-11.109752 11.111659-25.882081 17.231842-41.59627 17.231842-15.716095 0-30.488424-6.120183-41.60199-17.231842L60.563117 99.268983c5.380422-22.808644 27.60946-39.958502 54.147411-39.958502h-0.001906z m1145.60479 905.379038H114.708622c-30.545622 0-55.39814-22.719034-55.398141-50.644989V181.89717L601.484317 724.069099c22.312928 22.314835 51.981515 34.604772 83.539542 34.604772 31.558027 0 61.2228-12.289937 83.537634-34.604772L1315.711552 176.920947v737.119769c0 27.927862-24.850611 50.648802-55.39814 50.648803z" p-id="3941" fill="#8a8a8a"></path></svg>