<?xml version="1.0" standalone="no"?><!DOCTYPE svg PUBLIC "-//W3C//DTD SVG 1.1//EN" "http://www.w3.org/Graphics/SVG/1.1/DTD/svg11.dtd"><svg t="1539827326828" class="icon" style="" viewBox="0 0 1024 1024" version="1.1" xmlns="http://www.w3.org/2000/svg" p-id="7753" xmlns:xlink="http://www.w3.org/1999/xlink" width="200" height="200"><defs><style type="text/css"></style></defs><path d="M723.144206 134.272865a150.763905 150.763905 0 0 0-152.414605 149.113206 152.414605 152.414605 0 0 0 304.82921 0 150.763905 150.763905 0 0 0-152.414605-149.113206z m0 242.927972a95.740582 95.740582 0 0 1-97.391282-94.089883 97.391282 97.391282 0 0 1 194.782564 0 95.740582 95.740582 0 0 1-97.391282 94.364999z" fill="#8a8a8a" p-id="7754"></path><path d="M719.017457 0.015957A291.623613 291.623613 0 0 0 424.367562 289.16352a282.819881 282.819881 0 0 0 34.389577 134.256908L45.256865 831.968602a111.422229 111.422229 0 0 0 0 159.292521 114.723629 114.723629 0 0 0 160.392987 0l41.817726-41.267493L286.809254 988.785073a85.836384 85.836384 0 0 0 119.950844 0l130.405276-128.479459a82.534985 82.534985 0 0 0 0-119.125495l-39.066559-38.241209 138.933891-137.558308a286.671513 286.671513 0 0 0 82.534984 12.380248 291.623613 291.623613 0 0 0 292.724079-288.59733A291.623613 291.623613 0 0 0 719.017457 0.015957z m0 522.721569a236.600289 236.600289 0 0 1-81.159402-15.131413 27.511662 27.511662 0 0 0-30.262827 8.253498 42.918192 42.918192 0 0 0-4.126749 6.052566l-165.06997 162.869036a27.511662 27.511662 0 0 0 5.227216 43.193309l3.576516 1.925816 3.026283 1.6507 48.970757 48.420524a27.511662 27.511662 0 0 1 0 40.717259L369.344239 949.718514a30.537944 30.537944 0 0 1-42.643076 0l-49.796107-48.145408a23.384912 23.384912 0 0 1-1.925817-3.301399l-1.650699-3.026283a27.511662 27.511662 0 0 0-42.918192-5.502332l-63.276822 62.176355a61.075889 61.075889 0 0 1-82.534985 0 56.398906 56.398906 0 0 1 0-80.884285l429.181921-423.404472a27.511662 27.511662 0 0 0 3.851632-34.93981A229.722374 229.722374 0 0 1 479.390885 289.16352a238.250989 238.250989 0 0 1 476.501978 0A236.600289 236.600289 0 0 1 719.017457 522.737526z" fill="#8a8a8a" p-id="7755"></path></svg>