<?xml version="1.0" standalone="no"?><!DOCTYPE svg PUBLIC "-//W3C//DTD SVG 1.1//EN" "http://www.w3.org/Graphics/SVG/1.1/DTD/svg11.dtd"><svg t="1554799590037" class="icon" style="" viewBox="0 0 1024 1024" version="1.1" xmlns="http://www.w3.org/2000/svg" p-id="5078" xmlns:xlink="http://www.w3.org/1999/xlink" width="200" height="200"><defs><style type="text/css"></style></defs><path d="M512 208m-208 0a208 208 0 1 0 416 0 208 208 0 1 0-416 0Z" fill="#D2EA6E" p-id="5079"></path><path d="M971.733333 859.733333c-13.866667-90.666667-29.866667-131.2-29.866666-131.2-32-87.466667-70.4-217.6-161.066667-251.733333-90.666667-34.133333-190.933333-38.4-190.933333-38.4L512 645.333333l-77.866667-205.866666s-100.266667 4.266667-190.933333 38.4C152.533333 512 114.133333 642.133333 82.133333 729.6c0 0-16 40.533333-29.866666 131.2 0 0-19.2 53.333333 59.733333 91.733333 0 0 102.4 48 128-21.333333 0 0 16-45.866667-34.133333-71.466667l-37.333334-20.266666V584.533333L512 708.266667l343.466667-123.733334v253.866667l-37.333334 20.266667c-50.133333 25.6-34.133333 71.466667-34.133333 71.466666 25.6 69.333333 128 21.333333 128 21.333334 78.933333-38.4 59.733333-91.733333 59.733333-91.733334z" fill="#D2EA6E" p-id="5080"></path><path d="M199.466667 632.533333l296.533333 101.333334V1024H199.466667v-32s69.333333-3.2 74.666666-75.733333c0 0 10.666667-53.333333-74.666666-92.8V632.533333zM824.533333 632.533333l-296.533333 101.333334V1024h296.533333v-32s-69.333333-3.2-74.666666-75.733333c0 0-10.666667-53.333333 74.666666-92.8V632.533333z" fill="#D2EA6E" p-id="5081"></path></svg>