<?xml version="1.0" standalone="no"?><!DOCTYPE svg PUBLIC "-//W3C//DTD SVG 1.1//EN" "http://www.w3.org/Graphics/SVG/1.1/DTD/svg11.dtd"><svg t="1548129735984" class="icon" style="" viewBox="0 0 1024 1024" version="1.1" xmlns="http://www.w3.org/2000/svg" p-id="13615" xmlns:xlink="http://www.w3.org/1999/xlink" width="200" height="200"><defs><style type="text/css"></style></defs><path d="M496.64 498.91328c0 0-64.853333-51.766613-26.740053-151.893333 0 0 9.099947-62.580053 153.033387-113.206613 0 0 161.000107-54.613333 281.033387-42.100053 0 0 5.993813 159.737173-42.666667 250.88-49.349973 92.44672-88.746667 123.446613-153.6 133.686613 0 0-122.73664 19.339947-165.403307-40.393387l141.23008-148.91008L496.64 498.91328z" p-id="13616" fill="#CCFF66"></path><path d="M437.405013 529.57184c0 0 21.23776-46.73536-17.75616-106.605227 0 0-23.292587-42.25024-117.282133-44.66688 0 0-109.021867-4.027733-178.455893 28.44672 0 0 31.982933 107.66336 81.55136 158.610773 50.285227 51.677867 80.896 64.43008 122.190507 58.210987 0 0 78.144853-11.789653 90.50112-60.183893L300.038827 492.544 437.405013 529.57184z" p-id="13617" fill="#CCFF66"></path><path d="M508.020053 544.426667c0 0-184.326827 122.30656-47.220053 256.566613l74.24-0.457387c0 0-131.13344-90.002773-23.04-243.595947 0 0 7.891627-11.01824 5.65248-14.650027C517.65248 542.296747 516.266667 537.920853 508.020053 544.426667z" p-id="13618" fill="#CCFF66"></path></svg>