<?xml version="1.0" standalone="no"?><!DOCTYPE svg PUBLIC "-//W3C//DTD SVG 1.1//EN" "http://www.w3.org/Graphics/SVG/1.1/DTD/svg11.dtd"><svg t="1539757238959" class="icon" style="" viewBox="0 0 1024 1024" version="1.1" xmlns="http://www.w3.org/2000/svg" p-id="3165" xmlns:xlink="http://www.w3.org/1999/xlink" width="200" height="200"><defs><style type="text/css"></style></defs><path d="M916.48 245.76c-5.12-30.72-25.6-51.2-51.2-56.32-56.32-10.24-112.64-20.48-168.96-40.96-51.2-20.48-102.4-51.2-148.48-87.04-25.6-15.36-56.32-15.36-81.92 0-40.96 40.96-92.16 71.68-148.48 87.04-51.2 25.6-107.52 35.84-163.84 40.96-30.72 5.12-51.2 30.72-51.2 56.32v271.36c0 230.4 271.36 450.56 409.6 450.56s363.52-158.72 404.48-450.56c5.12-163.84 0-271.36 0-271.36z m-394.24 194.56c-15.36 15.36-30.72 35.84-51.2 46.08l-25.6-35.84c51.2-40.96 92.16-97.28 122.88-168.96h40.96a419.84 419.84 0 0 0 122.88 163.84l-25.6 40.96c-20.48-15.36-35.84-30.72-51.2-51.2v30.72h-138.24v-25.6z m128-15.36c-25.6-30.72-40.96-61.44-56.32-97.28-15.36 35.84-35.84 66.56-56.32 97.28h112.64zM460.8 686.08h153.6c15.36-51.2 30.72-117.76 46.08-194.56l46.08 10.24c-10.24 66.56-30.72 128-46.08 184.32h66.56v46.08H460.8v-46.08z m51.2-179.2c15.36 40.96 30.72 92.16 40.96 143.36l-40.96 10.24c-10.24-51.2-25.6-97.28-40.96-138.24l40.96-15.36z m76.8-15.36c10.24 40.96 25.6 87.04 30.72 138.24l-40.96 10.24c-10.24-46.08-20.48-92.16-30.72-133.12l40.96-15.36zM399.36 343.04H286.72v-40.96h158.72L424.96 512h30.72c0 117.76-5.12 189.44-15.36 204.8-10.24 20.48-30.72 25.6-61.44 25.6h-35.84l-10.24-40.96c15.36 0 30.72 5.12 35.84 5.12 20.48 0 35.84-5.12 40.96-20.48v-133.12H286.72L307.2 373.76h40.96L332.8 512h46.08l20.48-168.96z m-10.24 245.76v40.96c-30.72 10.24-66.56 20.48-107.52 30.72l-5.12-46.08c40.96-5.12 81.92-15.36 112.64-25.6z" p-id="3166" fill="#8a8a8a"></path></svg>