<?xml version="1.0" standalone="no"?><!DOCTYPE svg PUBLIC "-//W3C//DTD SVG 1.1//EN" "http://www.w3.org/Graphics/SVG/1.1/DTD/svg11.dtd"><svg t="1552462463614" class="icon" style="" viewBox="0 0 1024 1024" version="1.1" xmlns="http://www.w3.org/2000/svg" p-id="556" xmlns:xlink="http://www.w3.org/1999/xlink" width="200" height="200"><defs><style type="text/css"></style></defs><path d="M511.990608 186.50543a325.503963 325.503963 0 1 0 325.503962 325.503962 325.503963 325.503963 0 0 0-325.503962-325.503962z m-77.375005 108.263974a122.063986 122.063986 0 0 1 64.151406-26.515011 123.691506 123.691506 0 1 1-64.151406 26.515011z m292.038087 419.221978c-0.644227 11.731705-7.391652 20.038838-17.461931 25.972504a97.006962 97.006962 0 0 1-33.22853 11.019665c-27.73565 4.916466-55.810367 5.153813-83.851177 5.357253-26.955797 0.20344-53.911594 0-80.867391 0-28.820663 0-57.641327 0.271253-86.394176 0-18.275691-0.237347-36.551382-0.91548-54.759261-2.203933a151.054183 151.054183 0 0 1-48.283088-10.171999 40.416742 40.416742 0 0 1-20.750877-16.953331 33.906663 33.906663 0 0 1-3.96708-15.936132 156.987849 156.987849 0 0 1 19.937118-85.580417 162.989328 162.989328 0 0 1 86.46199-73.306204 170.414887 170.414887 0 0 1 60.591206-10.646693h95.989763a166.820781 166.820781 0 0 1 111.891987 41.027062 155.495955 155.495955 0 0 1 52.72486 91.887056 166.142648 166.142648 0 0 1 1.966587 39.535169z m-44.383822-98.329322a14.681585 14.681585 0 0 0-19.869304-2.475186c-29.05801 21.157758-105.653161 76.968124-119.351453 87.17403-16.953331 12.579372-33.533689 37.873742-33.53369 37.873742l2.543 4.306146s16.546451-0.5086 45.977435-18.038344c23.463411-13.969545 94.090989-67.542072 122.063986-88.869363a13.969545 13.969545 0 0 0 2.33956-20.004931z" p-id="557" fill="#1296db"></path><path d="M511.990608 1024C225.275867 1024-7.154306 787.094147 0.169533 498.751887 7.222119 220.615532 238.262119-2.354682 516.500194 0.018784a508.294782 508.294782 0 0 1 277.186968 84.359777 16.512545 16.512545 0 0 1 4.340053 23.327784A16.478638 16.478638 0 0 1 775.445378 111.910771a479.033332 479.033332 0 0 0-742.555915 400.098621c0 264.098996 214.866522 478.965518 478.965518 478.965518s479.101145-214.866522 479.101145-478.965518A473.438732 473.438732 0 0 0 945.995891 309.315362a16.580358 16.580358 0 0 1 7.425559-21.801984 16.546451 16.546451 0 0 1 22.446211 7.662906A506.192569 506.192569 0 0 1 1023.981216 512.009392c0 282.306874-229.683734 511.990608-511.990608 511.990608z" p-id="558" fill="#1296db"></path><path d="M927.00816 223.361972m-18.648664 0a18.648665 18.648665 0 1 0 37.297329 0 18.648665 18.648665 0 1 0-37.297329 0Z" p-id="559" fill="#1296db"></path></svg>